<svg width="104" height="104" viewBox="0 0 104 104" fill="none" xmlns="http://www.w3.org/2000/svg">
<rect width="104" height="104" rx="12" fill="#3C4A30"/>
<path d="M25.3333 41.3333C25.3333 41.3333 37.2724 28 52 28C66.7276 28 78.6667 41.3333 78.6667 41.3333" stroke="white" stroke-width="3.5" stroke-linecap="round"/>
<path d="M77.4506 54.7866C78.2613 55.9235 78.6667 56.4919 78.6667 57.3333C78.6667 58.1748 78.2613 58.7432 77.4506 59.88C73.8077 64.9882 64.5046 76 52 76C39.4954 76 30.1923 64.9882 26.5494 59.88C25.7387 58.7432 25.3333 58.1748 25.3333 57.3333C25.3333 56.4919 25.7387 55.9235 26.5494 54.7866C30.1923 49.6785 39.4954 38.6667 52 38.6667C64.5046 38.6667 73.8077 49.6785 77.4506 54.7866Z" stroke="white" stroke-width="3.5"/>
<path d="M60 57.3333C60 52.915 56.4183 49.3333 52 49.3333C47.5817 49.3333 44 52.915 44 57.3333C44 61.7516 47.5817 65.3333 52 65.3333C56.4183 65.3333 60 61.7516 60 57.3333Z" stroke="white" stroke-width="3.5"/>
</svg>
