<svg width="104" height="104" viewBox="0 0 104 104" fill="none" xmlns="http://www.w3.org/2000/svg">
<rect width="104" height="104" rx="12" fill="#3C4A30"/>
<path d="M65.3333 52C65.3333 59.3638 59.3638 65.3333 52 65.3333C44.6362 65.3333 38.6667 59.3638 38.6667 52C38.6667 44.6362 44.6362 38.6667 52 38.6667" stroke="white" stroke-width="3.5" stroke-linejoin="round"/>
<path d="M57.3333 25.8668C55.6101 25.517 53.8265 25.3333 52 25.3333C37.2724 25.3333 25.3333 37.2724 25.3333 52C25.3333 66.7276 37.2724 78.6667 52 78.6667C66.7276 78.6667 78.6667 66.7276 78.6667 52C78.6667 50.1735 78.483 48.3899 78.1332 46.6667" stroke="white" stroke-width="3.5" stroke-linejoin="round"/>
<path d="M70.6667 25.3333L72.3827 24.9901C72.2561 24.3573 71.7915 23.8454 71.1738 23.6584C70.5561 23.4714 69.8856 23.6395 69.4292 24.0959L70.6667 25.3333ZM78.6667 33.3333L79.9041 34.5708C80.3605 34.1144 80.5286 33.4439 80.3416 32.8262C80.1546 32.2085 79.6427 31.7439 79.0099 31.6173L78.6667 33.3333ZM70.6667 41.3333L70.6667 43.0833H71.3915L71.9041 42.5708L70.6667 41.3333ZM62.6667 33.3333L61.4292 32.0959L60.9167 32.6084V33.3333H62.6667ZM72 32L70.284 32.3432C70.4225 33.0359 70.964 33.5774 71.6568 33.716L72 32ZM62.6667 41.3333L61.4292 40.0959L50.7626 50.7626L52 52L53.2374 53.2374L63.9041 42.5707L62.6667 41.3333ZM70.6667 25.3333L69.4292 24.0959L61.4292 32.0959L62.6667 33.3333L63.9041 34.5708L71.9041 26.5707L70.6667 25.3333ZM62.6667 41.3333H64.4167V33.3333H62.6667H60.9167V41.3333H62.6667ZM62.6667 41.3333L62.6667 43.0833L70.6667 43.0833L70.6667 41.3333L70.6667 39.5833L62.6667 39.5833L62.6667 41.3333ZM70.6667 25.3333L68.9506 25.6765L70.284 32.3432L72 32L73.716 31.6568L72.3827 24.9901L70.6667 25.3333ZM78.6667 33.3333L77.4292 32.0959L69.4292 40.0959L70.6667 41.3333L71.9041 42.5708L79.9041 34.5708L78.6667 33.3333ZM72 32L71.6568 33.716L78.3235 35.0493L78.6667 33.3333L79.0099 31.6173L72.3432 30.284L72 32Z" fill="white"/>
</svg>
