<svg width="390" height="390" viewBox="0 0 390 390" fill="none" xmlns="http://www.w3.org/2000/svg">
<rect x="0.5" y="0.5" width="389" height="389" rx="194.5" stroke="black" stroke-dasharray="7 7"/>
<path d="M219 194.667L213.274 188.941M213.274 188.941C213.58 188.636 213.864 188.309 214.124 187.963C215.272 186.435 215.952 184.535 215.952 182.476C215.952 177.427 211.859 173.333 206.809 173.333C201.76 173.333 197.667 177.427 197.667 182.476C197.667 187.526 201.76 191.619 206.809 191.619C209.334 191.619 211.62 190.596 213.274 188.941Z" stroke="#3C4A30" stroke-width="4.5" stroke-linejoin="round"/>
<path d="M171 194.667H168.75C168.75 195.909 169.757 196.917 171 196.917V194.667ZM216.333 141.333H218.583C218.583 140.091 217.576 139.083 216.333 139.083V141.333ZM189.667 141.333V139.083H188.735L188.076 139.742L189.667 141.333ZM171 160L169.409 158.409L168.75 159.068V160H171ZM189.667 160V162.25H191.917V160H189.667ZM195 194.667V192.417H171V194.667V196.917H195V194.667ZM216.333 141.333V139.083H189.667V141.333V143.583H216.333V141.333ZM171 160H168.75V194.667H171H173.25V160H171ZM189.667 141.333L188.076 139.742L169.409 158.409L171 160L172.591 161.591L191.258 142.924L189.667 141.333ZM189.667 141.333H187.417V160H189.667H191.917V141.333H189.667ZM189.667 160V157.75H171V160V162.25H189.667V160ZM216.333 141.333H214.083V168H216.333H218.583V141.333H216.333Z" fill="#3C4A30"/>
<path d="M176.023 215.515L169.063 218.705L168.28 216.994L175.211 213.775L176.023 215.515ZM176.023 211.31L169.063 214.5L168.28 212.789L175.211 209.57L176.023 211.31ZM176.157 242C174.243 242 172.832 241.575 171.923 240.724C171.034 239.873 170.589 238.462 170.589 236.49V220.54H173.692V236.084C173.692 236.915 173.866 237.476 174.214 237.766C174.581 238.056 175.2 238.201 176.07 238.201H176.969V241.217L176.186 242H176.157ZM176.191 238.984L176.974 238.201H177.873C179.458 238.201 180.251 237.476 180.251 236.026V231.763H183.093V236.026C183.093 237.476 183.818 238.201 185.268 238.201H186.37V241.217L185.587 242C184.098 242 182.958 241.71 182.165 241.13C181.372 240.55 180.841 239.641 180.57 238.404H180.425C180.174 239.68 179.719 240.598 179.062 241.159C178.424 241.72 177.467 242 176.191 242V238.984ZM181.411 248.09C180.947 248.09 180.56 247.945 180.251 247.655C179.961 247.384 179.816 246.94 179.816 246.321C179.816 245.683 179.961 245.219 180.251 244.929C180.56 244.658 180.947 244.523 181.411 244.523H181.904C182.368 244.523 182.745 244.658 183.035 244.929C183.344 245.219 183.499 245.683 183.499 246.321C183.499 246.94 183.344 247.384 183.035 247.655C182.745 247.945 182.368 248.09 181.904 248.09H181.411ZM185.593 238.984L186.376 238.201H187.101C188.455 238.201 189.383 238.066 189.885 237.795C190.407 237.505 190.668 236.993 190.668 236.258C190.668 235.949 190.639 235.562 190.581 235.098C190.543 234.615 190.456 233.977 190.32 233.184L189.856 230.574L192.698 230.11L193.104 232.72C193.201 233.377 193.278 234.025 193.336 234.663C193.394 235.282 193.423 235.813 193.423 236.258C193.423 238.23 192.921 239.68 191.915 240.608C190.91 241.536 189.305 242 187.101 242H185.593V238.984ZM192.64 248.09C192.176 248.09 191.79 247.945 191.48 247.655C191.19 247.384 191.045 246.94 191.045 246.321C191.045 245.683 191.19 245.219 191.48 244.929C191.79 244.658 192.176 244.523 192.64 244.523H193.133C193.597 244.523 193.974 244.658 194.264 244.929C194.574 245.219 194.728 245.683 194.728 246.321C194.728 246.94 194.574 247.384 194.264 247.655C193.974 247.945 193.597 248.09 193.133 248.09H192.64ZM188.319 248.09C187.855 248.09 187.469 247.945 187.159 247.655C186.869 247.384 186.724 246.94 186.724 246.321C186.724 245.683 186.869 245.219 187.159 244.929C187.469 244.658 187.855 244.523 188.319 244.523H188.812C189.276 244.523 189.653 244.658 189.943 244.929C190.253 245.219 190.407 245.683 190.407 246.321C190.407 246.94 190.253 247.384 189.943 247.655C189.653 247.945 189.276 248.09 188.812 248.09H188.319ZM195.936 245.161H197.067C198.923 245.161 200.248 244.736 201.04 243.885C201.833 243.054 202.22 241.836 202.2 240.231C202.2 239.748 202.171 239.245 202.113 238.723C202.055 238.182 201.978 237.631 201.881 237.07L201.272 233.387L204.085 232.923L204.52 235.475C204.694 236.442 204.81 237.35 204.868 238.201H207.565V241.217L206.782 242H204.868C204.733 243.044 204.472 243.991 204.085 244.842C203.699 245.693 203.186 246.418 202.548 247.017C201.91 247.636 201.137 248.109 200.228 248.438C199.32 248.786 198.276 248.96 197.096 248.96H195.936V245.161ZM206.777 238.984L207.56 238.201H213.157C214.568 238.201 215.641 237.998 216.376 237.592C217.13 237.167 217.507 236.384 217.507 235.243V234.025H217.333C217.062 234.76 216.598 235.32 215.941 235.707C215.303 236.074 214.51 236.258 213.563 236.258C211.997 236.258 210.779 235.852 209.909 235.04C209.039 234.228 208.604 233.097 208.604 231.647C208.604 230.68 208.749 229.791 209.039 228.979C209.329 228.148 209.725 227.432 210.228 226.833C210.75 226.214 211.359 225.731 212.055 225.383C212.77 225.035 213.544 224.861 214.375 224.861C216.192 224.861 217.613 225.634 218.638 227.181C219.663 228.708 220.175 230.845 220.175 233.59C220.175 235.253 220.03 236.625 219.74 237.708C219.469 238.791 219.044 239.651 218.464 240.289C217.884 240.927 217.149 241.372 216.26 241.623C215.39 241.874 214.356 242 213.157 242H206.777V238.984ZM214.375 232.836C215.148 232.836 215.777 232.797 216.26 232.72C216.763 232.643 217.169 232.498 217.478 232.285C217.381 231.183 217.024 230.303 216.405 229.646C215.786 228.989 215.003 228.66 214.056 228.66C213.225 228.66 212.548 228.892 212.026 229.356C211.523 229.82 211.272 230.419 211.272 231.154C211.272 231.773 211.485 232.208 211.91 232.459C212.335 232.71 212.954 232.836 213.766 232.836H214.375ZM216.26 222.193C215.796 222.193 215.409 222.058 215.1 221.787C214.81 221.497 214.665 221.043 214.665 220.424C214.665 219.786 214.81 219.332 215.1 219.061C215.409 218.771 215.796 218.626 216.26 218.626H216.753C217.217 218.626 217.594 218.771 217.884 219.061C218.193 219.332 218.348 219.786 218.348 220.424C218.348 221.043 218.193 221.497 217.884 221.787C217.594 222.058 217.217 222.193 216.753 222.193H216.26ZM211.939 222.193C211.475 222.193 211.088 222.058 210.779 221.787C210.489 221.497 210.344 221.043 210.344 220.424C210.344 219.786 210.489 219.332 210.779 219.061C211.088 218.771 211.475 218.626 211.939 218.626H212.432C212.896 218.626 213.273 218.771 213.563 219.061C213.872 219.332 214.027 219.786 214.027 220.424C214.027 221.043 213.872 221.497 213.563 221.787C213.273 222.058 212.896 222.193 212.432 222.193H211.939Z" fill="#3C4A30"/>
</svg>
