<svg width="390" height="390" viewBox="0 0 390 390" fill="none" xmlns="http://www.w3.org/2000/svg">
<rect x="0.5" y="0.5" width="389" height="389" rx="194.5" stroke="black" stroke-dasharray="7 7"/>
<path d="M219 198.167L213.274 192.441M213.274 192.441C213.58 192.136 213.864 191.809 214.124 191.463C215.272 189.935 215.952 188.035 215.952 185.976C215.952 180.927 211.859 176.833 206.809 176.833C201.76 176.833 197.667 180.927 197.667 185.976C197.667 191.026 201.76 195.119 206.809 195.119C209.334 195.119 211.62 194.096 213.274 192.441Z" stroke="#3C4A30" stroke-width="4.5" stroke-linejoin="round"/>
<path d="M171 198.167H168.75C168.75 199.409 169.757 200.417 171 200.417V198.167ZM216.333 144.833H218.583C218.583 143.591 217.576 142.583 216.333 142.583V144.833ZM189.667 144.833V142.583H188.735L188.076 143.242L189.667 144.833ZM171 163.5L169.409 161.909L168.75 162.568V163.5H171ZM189.667 163.5V165.75H191.917V163.5H189.667ZM195 198.167V195.917H171V198.167V200.417H195V198.167ZM216.333 144.833V142.583H189.667V144.833V147.083H216.333V144.833ZM171 163.5H168.75V198.167H171H173.25V163.5H171ZM189.667 144.833L188.076 143.242L169.409 161.909L171 163.5L172.591 165.091L191.258 146.424L189.667 144.833ZM189.667 144.833H187.417V163.5H189.667H191.917V144.833H189.667ZM189.667 163.5V161.25H171V163.5V165.75H189.667V163.5ZM216.333 144.833H214.083V171.5H216.333H218.583V144.833H216.333Z" fill="#3C4A30"/>
<path d="M166.556 241.645L165.135 235.99H158.204L156.667 241.5L152.955 241.21L155.507 234.163L159.393 221.693L164.584 221.316L168.325 233.728L170.732 241.007L166.556 241.645ZM161.974 225.086H161.597L159.103 232.916H164.265L161.974 225.086ZM176.809 219.054L176.432 233.96L176.751 240.775L172.836 241.5L173.184 234.453L172.836 219.779L176.809 219.054ZM188.581 234.163C188.581 232.829 188.465 231.94 188.233 231.495C188.001 231.05 187.46 230.828 186.609 230.828C185.759 230.828 184.792 231.166 183.709 231.843V233.96L184.028 240.775L180.142 241.5L180.49 234.453C180.413 231.862 180.2 229.542 179.852 227.493L183.361 226.739C183.497 227.86 183.593 228.953 183.651 230.016C183.941 229.629 184.27 229.252 184.637 228.885C185.005 228.498 185.585 228.073 186.377 227.609C187.17 227.126 187.972 226.884 188.784 226.884C189.596 226.884 190.283 227.145 190.843 227.667C191.404 228.189 191.762 228.904 191.916 229.813C193.521 227.86 195.145 226.884 196.788 226.884C197.813 226.884 198.625 227.232 199.224 227.928C199.824 228.605 200.123 229.533 200.123 230.712L199.949 233.96L200.268 240.92L196.353 241.645L196.701 234.163C196.701 232.829 196.585 231.94 196.353 231.495C196.121 231.05 195.59 230.828 194.758 230.828C193.927 230.828 192.989 231.147 191.945 231.785L191.829 233.96L192.148 240.92L188.233 241.645L188.581 234.163ZM202.581 235.439C202.581 232.964 203.248 230.867 204.582 229.146C205.916 227.425 207.472 226.565 209.251 226.565C211.049 226.565 212.441 227.145 213.427 228.305C214.432 229.465 214.935 231.002 214.935 232.916C214.935 235.468 214.287 237.595 212.992 239.296C211.716 240.978 210.101 241.819 208.149 241.819C206.544 241.819 205.21 241.22 204.147 240.021C203.103 238.803 202.581 237.276 202.581 235.439ZM211.687 234.424C211.687 231.621 210.73 230.219 208.816 230.219C206.824 230.219 205.829 231.534 205.829 234.163C205.829 235.536 206.109 236.609 206.67 237.382C207.23 238.155 207.965 238.542 208.874 238.542C209.802 238.542 210.498 238.194 210.962 237.498C211.445 236.783 211.687 235.758 211.687 234.424ZM221.82 238.803C222.825 238.803 223.328 238.358 223.328 237.469C223.328 237.16 223.105 236.87 222.661 236.599C222.235 236.328 221.704 236.058 221.066 235.787C220.447 235.516 219.819 235.217 219.181 234.888C218.562 234.54 218.03 234.066 217.586 233.467C217.16 232.868 216.948 232.181 216.948 231.408C216.948 230.113 217.518 228.982 218.659 228.015C219.799 227.048 221.114 226.565 222.603 226.565C223.299 226.565 223.975 226.652 224.633 226.826C225.309 226.981 225.957 227.232 226.576 227.58L224.633 231.118C224.497 231.002 224.323 230.857 224.111 230.683C223.898 230.509 223.492 230.287 222.893 230.016C222.313 229.726 221.791 229.581 221.327 229.581C220.882 229.581 220.534 229.687 220.283 229.9C220.051 230.093 219.935 230.374 219.935 230.741C219.935 231.089 220.263 231.447 220.921 231.814C221.597 232.162 222.332 232.491 223.125 232.8C223.917 233.09 224.642 233.583 225.3 234.279C225.976 234.956 226.315 235.768 226.315 236.715C226.315 238.068 225.754 239.257 224.633 240.282C223.531 241.307 222.255 241.819 220.805 241.819C219.877 241.819 219.007 241.616 218.195 241.21C217.402 240.804 216.832 240.398 216.484 239.992L215.962 239.383L218.253 236.715C218.369 236.87 218.533 237.063 218.746 237.295C218.958 237.527 219.374 237.836 219.993 238.223C220.631 238.61 221.24 238.803 221.82 238.803ZM229.985 227.464V224.303L233.9 223.549L233.523 227.464H237.032L236.713 229.842H233.407L233.262 235.903C233.262 236.812 233.349 237.421 233.523 237.73C233.697 238.02 234.016 238.165 234.48 238.165C234.944 238.165 235.563 238.059 236.336 237.846L236.51 239.905C235.234 240.968 234.113 241.5 233.146 241.5C232.179 241.5 231.387 241.152 230.768 240.456C230.149 239.741 229.84 238.813 229.84 237.672L230.014 234.424L229.985 229.842H227.984L228.303 227.464H229.985Z" fill="#3C4A30"/>
</svg>
