<svg width="58" height="56" viewBox="0 0 58 56" fill="none" xmlns="http://www.w3.org/2000/svg">
<path d="M16.9165 34.25H40.9165M16.9165 20.9167H31.5832" stroke="#3C4A30" stroke-width="4.5" stroke-linejoin="round"/>
<path d="M23.3471 51.5289L23.5029 49.2843H23.5029L23.3471 51.5289ZM2.30441 30.4862L4.54901 30.3304L2.30441 30.4862ZM55.5289 30.4862L53.2843 30.3304V30.3304L55.5289 30.4862ZM34.4862 51.5289L34.3304 49.2843H34.3304L34.4862 51.5289ZM34.4862 2.30441L34.3304 4.54901V4.54901L34.4862 2.30441ZM55.5289 23.3471L53.2843 23.5029V23.5029L55.5289 23.3471ZM23.3471 2.30441L23.5029 4.54901V4.54901L23.3471 2.30441ZM2.30441 23.3471L4.54901 23.5029V23.5029L2.30441 23.3471ZM6.58504 42.25L8.67317 43.088L9.13697 41.9323L8.40392 40.9256L6.58504 42.25ZM2.30441 52.9167L0.216278 52.0787C-0.110416 52.8928 0.0657756 53.8225 0.667671 54.4606C1.26957 55.0986 2.18742 55.3288 3.01916 55.0501L2.30441 52.9167ZM14.2439 48.9167L15.3042 46.9321L14.4488 46.4751L13.5292 46.7832L14.2439 48.9167ZM26.9167 2.25V4.5H30.9167V2.25V0H26.9167V2.25ZM30.9167 51.5833V49.3333H26.9167V51.5833V53.8333H30.9167V51.5833ZM26.9167 51.5833V49.3333C25.0218 49.3333 24.1893 49.332 23.5029 49.2843L23.3471 51.5289L23.1913 53.7735C24.0726 53.8347 25.0973 53.8333 26.9167 53.8333V51.5833ZM2.25 26.9167H0C0 28.7361 -0.00136137 29.7608 0.0598068 30.642L2.30441 30.4862L4.54901 30.3304C4.50136 29.644 4.5 28.8116 4.5 26.9167H2.25ZM55.5833 26.9167H53.3333C53.3333 28.8116 53.332 29.644 53.2843 30.3304L55.5289 30.4862L57.7735 30.642C57.8347 29.7608 57.8333 28.7361 57.8333 26.9167H55.5833ZM30.9167 51.5833V53.8333C32.7361 53.8333 33.7608 53.8347 34.642 53.7735L34.4862 51.5289L34.3304 49.2843C33.644 49.332 32.8116 49.3333 30.9167 49.3333V51.5833ZM55.5289 30.4862L53.2843 30.3304C52.579 40.4919 44.4919 48.579 34.3304 49.2843L34.4862 51.5289L34.642 53.7735C47.0432 52.9128 56.9127 43.0432 57.7735 30.642L55.5289 30.4862ZM30.9167 2.25V4.5C32.8116 4.5 33.644 4.50136 34.3304 4.54901L34.4862 2.30441L34.642 0.0598068C33.7608 -0.00136137 32.7361 0 30.9167 0V2.25ZM55.5833 26.9167H57.8333C57.8333 25.0973 57.8347 24.0726 57.7735 23.1913L55.5289 23.3471L53.2843 23.5029C53.332 24.1893 53.3333 25.0218 53.3333 26.9167H55.5833ZM34.4862 2.30441L34.3304 4.54901C44.4919 5.25432 52.579 13.3414 53.2843 23.5029L55.5289 23.3471L57.7735 23.1913C56.9127 10.7902 47.0432 0.920583 34.642 0.0598068L34.4862 2.30441ZM26.9167 2.25V0C25.0973 0 24.0726 -0.00136137 23.1913 0.0598068L23.3471 2.30441L23.5029 4.54901C24.1893 4.50136 25.0218 4.5 26.9167 4.5V2.25ZM2.25 26.9167H4.5C4.5 25.0218 4.50136 24.1893 4.54901 23.5029L2.30441 23.3471L0.0598068 23.1913C-0.00136137 24.0726 0 25.0973 0 26.9167H2.25ZM23.3471 2.30441L23.1913 0.0598068C10.7902 0.920583 0.920583 10.7902 0.0598068 23.1913L2.30441 23.3471L4.54901 23.5029C5.25432 13.3414 13.3414 5.25432 23.5029 4.54901L23.3471 2.30441ZM6.58504 42.25L8.40392 40.9256C6.21177 37.915 4.82325 34.2814 4.54901 30.3304L2.30441 30.4862L0.0598068 30.642C0.394215 35.4598 2.09005 39.8993 4.76616 43.5745L6.58504 42.25ZM6.58504 42.25L4.49691 41.412L0.216278 52.0787L2.30441 52.9167L4.39253 53.7547L8.67317 43.088L6.58504 42.25ZM23.3471 51.5289L23.5029 49.2843C20.5488 49.0793 17.7738 48.2516 15.3042 46.9321L14.2439 48.9167L13.1837 50.9012C16.2017 52.5136 19.5918 53.5237 23.1913 53.7735L23.3471 51.5289ZM2.30441 52.9167L3.01916 55.0501L14.9587 51.0501L14.2439 48.9167L13.5292 46.7832L1.58965 50.7832L2.30441 52.9167Z" fill="#3C4A30"/>
</svg>
