<svg width="56" height="45" viewBox="0 0 56 45" fill="none" xmlns="http://www.w3.org/2000/svg">
<path d="M55.3 27.9763C55.133 27.5102 54.9368 27.0552 54.7125 26.6138L44.315 2.95879C44.2166 2.73096 44.0758 2.52394 43.9 2.34879C43.1571 1.60573 42.2751 1.01629 41.3044 0.614139C40.3337 0.211987 39.2932 0.00500011 38.2425 0.00500011C37.1918 0.00500011 36.1513 0.211987 35.1806 0.614139C34.2099 1.01629 33.3279 1.60573 32.585 2.34879C32.2112 2.72296 32.0009 3.22993 32 3.75879V10.0088H24V3.75879C24.0002 3.49607 23.9487 3.23588 23.8483 2.99309C23.7479 2.7503 23.6007 2.52967 23.415 2.34379C22.6721 1.60073 21.7901 1.01129 20.8194 0.609138C19.8487 0.206987 18.8082 0 17.7575 0C16.7068 0 15.6663 0.206987 14.6956 0.609138C13.7249 1.01129 12.8429 1.60073 12.1 2.34379C11.9242 2.51894 11.7834 2.72596 11.685 2.95379L1.2875 26.6088C1.06322 27.0502 0.866996 27.5052 0.700001 27.9713C0.111251 29.6186 -0.110202 31.3748 0.0511568 33.1167C0.212515 34.8586 0.752783 36.5442 1.63411 38.0554C2.51544 39.5665 3.71652 40.8667 5.1532 41.8649C6.58989 42.863 8.22744 43.535 9.95113 43.8336C11.6748 44.1323 13.443 44.0505 15.1318 43.594C16.8205 43.1374 18.389 42.3172 19.7274 41.1906C21.0658 40.0641 22.1417 38.6586 22.8798 37.0725C23.6178 35.4864 24.0002 33.7582 24 32.0088V14.0088H32V32.0088C31.9991 33.7584 32.3808 35.487 33.1184 37.0735C33.8559 38.6601 34.9315 40.0662 36.2697 41.1932C37.6079 42.3203 39.1764 43.1411 40.8652 43.5982C42.5541 44.0552 44.3224 44.1374 46.0464 43.8391C47.7704 43.5407 49.4082 42.869 50.8453 41.8709C52.2823 40.8729 53.4837 39.5727 54.3653 38.0615C55.2468 36.5502 55.7873 34.8645 55.9488 33.1223C56.1103 31.3802 55.8888 29.6238 55.3 27.9763ZM15.1775 4.94629C15.8443 4.38485 16.6763 4.05659 17.5468 4.01146C18.4173 3.96633 19.2787 4.20681 20 4.69629V23.0738C18.4385 21.6717 16.5359 20.7045 14.4829 20.2693C12.43 19.834 10.2986 19.9459 8.3025 20.5938L15.1775 4.94629ZM12 40.0088C10.4178 40.0088 8.87103 39.5396 7.55544 38.6605C6.23985 37.7815 5.21447 36.5321 4.60897 35.0703C4.00346 33.6084 3.84504 31.9999 4.15372 30.4481C4.4624 28.8962 5.22433 27.4708 6.34315 26.3519C7.46197 25.2331 8.88743 24.4712 10.4393 24.1625C11.9911 23.8538 13.5997 24.0123 15.0615 24.6178C16.5233 25.2233 17.7727 26.2486 18.6518 27.5642C19.5308 28.8798 20 30.4265 20 32.0088C20 34.1305 19.1571 36.1654 17.6569 37.6656C16.1566 39.1659 14.1217 40.0088 12 40.0088ZM36 4.69379C36.7213 4.20431 37.5827 3.96383 38.4532 4.00896C39.3237 4.05409 40.1557 4.38235 40.8225 4.94379L47.6975 20.5888C45.7012 19.9412 43.5697 19.8297 41.5167 20.2654C39.4637 20.7011 37.5613 21.6687 36 23.0713V4.69379ZM44 40.0088C42.4178 40.0088 40.871 39.5396 39.5554 38.6605C38.2398 37.7815 37.2145 36.5321 36.609 35.0703C36.0035 33.6084 35.845 31.9999 36.1537 30.4481C36.4624 28.8962 37.2243 27.4708 38.3431 26.3519C39.462 25.2331 40.8874 24.4712 42.4393 24.1625C43.9911 23.8538 45.5997 24.0123 47.0615 24.6178C48.5233 25.2233 49.7727 26.2486 50.6518 27.5642C51.5308 28.8798 52 30.4265 52 32.0088C52 34.1305 51.1571 36.1654 49.6569 37.6656C48.1566 39.1659 46.1217 40.0088 44 40.0088Z" fill="#3C4A30"/>
</svg>
