<svg width="60" height="45" viewBox="0 0 60 45" fill="none" xmlns="http://www.w3.org/2000/svg">
<path d="M59.2008 25.5978C58.9906 25.7554 58.7515 25.8701 58.4971 25.9353C58.2427 26.0005 57.9779 26.0149 57.7179 25.9777C57.4579 25.9406 57.2078 25.8526 56.9818 25.7188C56.7558 25.585 56.5583 25.408 56.4008 25.1978C55.1953 23.5775 53.6262 22.2628 51.8199 21.3596C50.0135 20.4565 48.0203 19.99 46.0008 19.9978C45.6075 19.9978 45.2229 19.8818 44.8952 19.6644C44.5675 19.4469 44.3111 19.1377 44.1583 18.7753C44.0544 18.5293 44.0009 18.2649 44.0009 17.9978C44.0009 17.7308 44.0544 17.4664 44.1583 17.2203C44.3111 16.858 44.5675 16.5487 44.8952 16.3313C45.2229 16.1139 45.6075 15.9979 46.0008 15.9978C47.1229 15.9977 48.2226 15.6829 49.1748 15.0892C50.1271 14.4954 50.8937 13.6466 51.3877 12.6389C51.8816 11.6313 52.0831 10.5054 51.9693 9.389C51.8554 8.27261 51.4307 7.21053 50.7435 6.3234C50.0563 5.43627 49.134 4.75964 48.0815 4.37038C47.029 3.98112 45.8884 3.89483 44.7893 4.1213C43.6903 4.34777 42.6767 4.87793 41.8638 5.65157C41.0509 6.4252 40.4713 7.4113 40.1908 8.49784C40.1251 8.75228 40.01 8.99129 39.8519 9.20123C39.6939 9.41117 39.4961 9.58793 39.2697 9.72141C39.0434 9.8549 38.793 9.94249 38.5328 9.9792C38.2726 10.0159 38.0077 10.001 37.7533 9.93534C37.4988 9.86968 37.2598 9.75455 37.0499 9.59652C36.8399 9.43849 36.6632 9.24065 36.5297 9.01431C36.3962 8.78796 36.3086 8.53755 36.2719 8.27735C36.2352 8.01715 36.2501 7.75228 36.3158 7.49784C36.7051 5.99113 37.4408 4.59609 38.4642 3.42372C39.4876 2.25135 40.7705 1.33402 42.2109 0.744718C43.6512 0.155412 45.2092 -0.089603 46.7609 0.0291683C48.3125 0.14794 49.8151 0.627219 51.1489 1.42887C52.4828 2.23052 53.6111 3.33242 54.4442 4.64689C55.2773 5.96135 55.792 7.45211 55.9476 9.00053C56.1031 10.549 55.8951 12.1123 55.3401 13.5662C54.7852 15.0201 53.8985 16.3244 52.7508 17.3753C55.4703 18.5528 57.8344 20.4214 59.6083 22.7953C59.7658 23.006 59.8803 23.2457 59.9451 23.5006C60.0099 23.7556 60.0238 24.0208 59.986 24.2811C59.9481 24.5415 59.8593 24.7918 59.7245 25.0177C59.5898 25.2437 59.4118 25.4408 59.2008 25.5978ZM45.7308 40.9978C45.8755 41.2255 45.9726 41.48 46.0164 41.7462C46.0602 42.0124 46.0497 42.2846 45.9855 42.5466C45.9213 42.8086 45.8048 43.0549 45.643 43.2707C45.4812 43.4865 45.2773 43.6673 45.0438 43.8023C44.8103 43.9373 44.5519 44.0237 44.2841 44.0562C44.0163 44.0887 43.7447 44.0667 43.4857 43.9916C43.2266 43.9164 42.9855 43.7897 42.7767 43.6189C42.5679 43.4481 42.3958 43.2368 42.2708 42.9978C41.0109 40.8645 39.2165 39.0965 37.0648 37.8683C34.9131 36.6402 32.4783 35.9942 30.0008 35.9942C27.5232 35.9942 25.0884 36.6402 22.9367 37.8683C20.785 39.0965 18.9906 40.8645 17.7308 42.9978C17.6057 43.2368 17.4336 43.4481 17.2249 43.6189C17.0161 43.7897 16.7749 43.9164 16.5158 43.9916C16.2568 44.0667 15.9852 44.0887 15.7174 44.0562C15.4497 44.0237 15.1912 43.9373 14.9577 43.8023C14.7242 43.6673 14.5204 43.4865 14.3585 43.2707C14.1967 43.0549 14.0802 42.8086 14.016 42.5466C13.9518 42.2846 13.9413 42.0124 13.9851 41.7462C14.0289 41.48 14.126 41.2255 14.2708 40.9978C16.2098 37.6663 19.1662 35.0445 22.7058 33.5178C20.7141 31.9929 19.2503 29.8822 18.5203 27.4824C17.7902 25.0826 17.8305 22.5143 18.6355 20.1386C19.4406 17.7629 20.9699 15.6992 23.0084 14.2375C25.047 12.7759 27.4923 11.9898 30.0008 11.9898C32.5092 11.9898 34.9545 12.7759 36.9931 14.2375C39.0317 15.6992 40.5609 17.7629 41.366 20.1386C42.171 22.5143 42.2113 25.0826 41.4813 27.4824C40.7512 29.8822 39.2874 31.9929 37.2958 33.5178C40.8353 35.0445 43.7918 37.6663 45.7308 40.9978ZM30.0008 31.9978C31.583 31.9978 33.1297 31.5286 34.4453 30.6496C35.7609 29.7705 36.7863 28.5211 37.3918 27.0593C37.9973 25.5975 38.1557 23.989 37.847 22.4371C37.5384 20.8853 36.7764 19.4598 35.6576 18.341C34.5388 17.2222 33.1133 16.4602 31.5615 16.1516C30.0096 15.8429 28.4011 16.0013 26.9393 16.6068C25.4775 17.2123 24.2281 18.2377 23.349 19.5533C22.4699 20.8689 22.0008 22.4156 22.0008 23.9978C22.0008 26.1196 22.8436 28.1544 24.3439 29.6547C25.8442 31.155 27.879 31.9978 30.0008 31.9978ZM16.0008 17.9978C16.0008 17.4674 15.79 16.9587 15.415 16.5836C15.0399 16.2086 14.5312 15.9978 14.0008 15.9978C12.8786 15.9977 11.7789 15.6829 10.8267 15.0892C9.87444 14.4954 9.1078 13.6466 8.61384 12.6389C8.11987 11.6313 7.91838 10.5054 8.03225 9.389C8.14613 8.27261 8.5708 7.21053 9.25803 6.3234C9.94526 5.43627 10.8675 4.75964 11.92 4.37038C12.9725 3.98112 14.1131 3.89483 15.2122 4.1213C16.3113 4.34777 17.3248 4.87793 18.1377 5.65157C18.9506 6.4252 19.5302 7.4113 19.8108 8.49784C19.9434 9.0117 20.2747 9.45183 20.7318 9.72141C21.1889 9.991 21.7344 10.0679 22.2483 9.93534C22.7621 9.80273 23.2022 9.47143 23.4718 9.01431C23.7414 8.55719 23.8184 8.0117 23.6858 7.49784C23.2964 5.99113 22.5607 4.59609 21.5373 3.42372C20.5139 2.25135 19.231 1.33402 17.7906 0.744718C16.3503 0.155412 14.7923 -0.089603 13.2407 0.0291683C11.689 0.14794 10.1864 0.627219 8.85257 1.42887C7.51872 2.23052 6.39037 3.33242 5.55731 4.64689C4.72425 5.96135 4.20947 7.45211 4.05393 9.00053C3.89839 10.549 4.10639 12.1123 4.66137 13.5662C5.21635 15.0201 6.10299 16.3244 7.25076 17.3753C4.53397 18.5539 2.17254 20.4224 0.400759 22.7953C0.0821673 23.2197 -0.0548046 23.7532 0.0199755 24.2785C0.0947556 24.8039 0.375162 25.278 0.799508 25.5966C1.22385 25.9152 1.75738 26.0522 2.28272 25.9774C2.80805 25.9026 3.28217 25.6222 3.60076 25.1978C4.80622 23.5775 6.37529 22.2628 8.18165 21.3596C9.98801 20.4565 11.9812 19.99 14.0008 19.9978C14.5312 19.9978 15.0399 19.7871 15.415 19.4121C15.79 19.037 16.0008 18.5283 16.0008 17.9978Z" fill="white"/>
</svg>
