<svg width="66" height="64" viewBox="0 0 66 64" fill="none" xmlns="http://www.w3.org/2000/svg">
<g clip-path="url(#clip0_1_398)">
<path fill-rule="evenodd" clip-rule="evenodd" d="M21.1836 22.6968C20.5229 22.7235 20.0234 22.8568 19.6797 23.0861C19.4863 23.2141 19.3413 23.3847 19.25 23.5821C19.1479 23.8007 19.0996 24.0674 19.1104 24.3767C19.1372 25.2779 19.6099 26.4565 20.5283 27.811L20.5391 27.8324L23.5254 32.5306C24.7231 34.4185 25.9746 36.3437 27.5322 37.7569C29.0308 39.1168 30.8462 40.034 33.2471 40.0447C35.8467 40.05 37.7534 39.0954 39.2949 37.6609C40.9009 36.1677 42.1685 34.1198 43.4199 32.0774L46.7769 26.5845C47.4053 25.1659 47.6309 24.2167 47.4858 23.6621C47.3999 23.3314 47.0347 23.1661 46.4062 23.1394C46.272 23.1341 46.1377 23.1288 45.998 23.1341C45.8477 23.1394 45.6919 23.1501 45.5308 23.1608C45.4395 23.1714 45.3535 23.1608 45.2729 23.1448C44.9722 23.1608 44.666 23.1394 44.3545 23.0968L45.5039 18.0412C36.9692 19.3744 30.5884 13.0816 21.5649 16.7826L22.2148 22.7395C21.8442 22.7555 21.5005 22.7395 21.1836 22.6968ZM26.5869 48.2787C24.9434 46.4228 24.8037 44.4763 26.5869 42.4178C28.6064 42.9244 30.4595 43.783 32.1675 44.9456C32.5757 44.8123 33.0322 44.7803 33.478 44.8443C35.2881 43.5484 37.6191 43.0364 39.6494 42.0712C42.0557 44.3963 41.7979 46.5401 39.4292 48.5346C38.0005 48.2093 36.647 47.6921 35.3579 47.0148C35.3418 47.3614 35.2559 47.7454 35.084 48.172L37.7158 57.2379C39.7515 52.9929 41.8677 48.7746 42.3511 43.9537C41.5454 43.0151 40.6914 41.7725 39.9502 40.6953C39.73 40.3753 39.5259 40.0767 39.3271 39.794C37.6997 40.9779 35.7446 41.7192 33.2417 41.7085C30.5508 41.7032 28.4775 40.7486 26.7642 39.3087C26.7534 39.3247 26.7427 39.3461 26.7319 39.3621C26.4526 39.746 26.1411 40.1993 25.8027 40.69C25.1689 41.6126 24.46 42.6471 23.7617 43.5164C24.6641 49.1053 26.8232 53.0356 28.7783 57.2326L31.4102 48.1667C31.0718 47.6014 30.916 47.1108 30.8945 46.6841C29.5464 47.4467 28.0962 47.9427 26.5869 48.2787ZM40.3691 38.9461C40.5786 39.2448 40.8149 39.5861 41.062 39.9434C41.5239 40.6153 42.0342 41.3566 42.5391 42.0339C46.0303 45.0256 56.0151 45.6442 59.748 47.7134C60.9351 48.3693 62.0146 49.2119 62.8794 50.3425C64.1899 52.0597 64.9956 54.3102 65.2158 57.1633L66 60.6456C65.8066 62.6615 64.6572 63.824 62.3853 64H33.2471H3.61475C1.34814 63.8294 0.193359 62.6668 0 60.6456L0.78418 57.1633C1.00439 54.3102 1.81006 52.065 3.12061 50.3425C3.98535 49.2066 5.05957 48.3693 6.25195 47.7134C9.79688 45.7509 18.9761 45.0949 22.8862 42.4711C23.4985 41.6872 24.127 40.7646 24.6963 39.9434C25.0454 39.4314 25.373 38.9568 25.647 38.5835C25.6953 38.5195 25.749 38.4662 25.8135 38.4235C24.3687 36.9516 23.2085 35.1704 22.1021 33.4212L19.1211 28.7123C18.0308 27.0964 17.4668 25.6246 17.4292 24.414C17.4131 23.8434 17.5098 23.3261 17.7192 22.8728C17.9395 22.3982 18.2832 21.9982 18.7451 21.6889C18.96 21.5449 19.2017 21.4222 19.4702 21.3209C19.2769 18.7665 19.207 15.5507 19.3306 12.8576C19.395 12.2177 19.5186 11.5777 19.6958 10.9431C20.4585 8.23934 22.3706 6.06352 24.7339 4.57031C25.5664 4.04235 26.4795 3.60506 27.4463 3.25842C29.1597 2.6398 28.3271 0.0373548 30.2285 -0.00530832C34.6812 -0.106633 41.9751 3.63172 44.8218 6.68747C46.4761 8.46865 47.5181 10.8205 47.7383 13.9402L47.5503 21.6196C48.3774 21.8702 48.9038 22.3875 49.124 23.2301C49.3657 24.1633 49.1025 25.4806 48.3076 27.2724C48.2915 27.3044 48.2754 27.3364 48.2593 27.3684L44.8594 32.9253C43.5488 35.0638 42.2222 37.2129 40.4443 38.8608L40.3691 38.9461Z" fill="#2D3C26"/>
</g>
<defs>
<clipPath id="clip0_1_398">
<rect width="66" height="64" fill="white"/>
</clipPath>
</defs>
</svg>
