<svg width="55" height="45" viewBox="0 0 55 45" fill="none" xmlns="http://www.w3.org/2000/svg">
<path d="M40.75 18.0833C44.4319 18.0833 47.4167 15.0986 47.4167 11.4167C47.4167 7.73477 44.4319 4.75 40.75 4.75M54.0833 38.0833C54.0833 30.7195 48.1138 24.75 40.75 24.75" stroke="#2D3C26" stroke-width="1.5"/>
<path d="M14.0833 18.0833C10.4014 18.0833 7.41662 15.0986 7.41662 11.4167C7.41662 7.73477 10.4014 4.75 14.0833 4.75M0.75 38.0833C0.75 30.7195 6.71954 24.75 14.0833 24.75" stroke="#2D3C26" stroke-width="1.5"/>
<path d="M36.7502 10.0833C36.7502 15.238 32.5715 19.4167 27.4168 19.4167C22.2622 19.4167 18.0835 15.238 18.0835 10.0833C18.0835 4.92868 22.2622 0.75 27.4168 0.75C32.5715 0.75 36.7502 4.92868 36.7502 10.0833Z" stroke="#2D3C26" stroke-width="1.5"/>
<path d="M8.75 43.4166H46.0833C46.0833 34.5801 37.726 27.4166 27.4167 27.4166C17.1074 27.4166 8.75 34.5801 8.75 43.4166Z" stroke="#2D3C26" stroke-width="1.5"/>
</svg>
