<svg width="50" height="55" viewBox="0 0 50 55" fill="none" xmlns="http://www.w3.org/2000/svg">
<path d="M48.7501 54.0833L43.0246 48.3578M43.0246 48.3578C43.33 48.0524 43.6139 47.7255 43.8739 47.3795C45.0221 45.8512 45.7025 43.9515 45.7025 41.8929C45.7025 36.8434 41.6091 32.75 36.5596 32.75C31.5101 32.75 27.4167 36.8434 27.4167 41.8929C27.4167 46.9423 31.5101 51.0357 36.5596 51.0357C39.0843 51.0357 41.37 50.0124 43.0246 48.3578Z" stroke="#2D3C26" stroke-width="1.5" stroke-linecap="round"/>
<path d="M22.0835 54.0833H21.3562C12.6597 54.0833 8.3114 54.0833 5.29168 51.9558C4.42649 51.3462 3.65838 50.6233 3.0107 49.809C0.750166 46.9669 0.750165 42.8744 0.750165 34.6894V27.9015C0.750165 19.9997 0.750167 16.0488 2.00066 12.8933C4.011 7.82047 8.26253 3.81904 13.6525 1.92695C17.0052 0.750016 21.203 0.750013 29.5986 0.750013C34.3962 0.750013 36.7949 0.750013 38.7108 1.42255C41.7907 2.50374 44.2202 4.79027 45.3689 7.68906C46.0835 9.4922 46.0835 11.7499 46.0835 16.2652V27.4167" stroke="#2D3C26" stroke-width="1.5" stroke-linecap="round" stroke-linejoin="round"/>
<path d="M0.750083 27.4167C0.750083 22.5075 4.72977 18.5278 9.63897 18.5278C11.4144 18.5278 13.5075 18.8389 15.2337 18.3764C16.7675 17.9654 17.9655 16.7674 18.3764 15.2337C18.839 13.5075 18.5279 11.4143 18.5279 9.63891C18.5279 4.72971 22.5076 0.750022 27.4167 0.750022" stroke="#2D3C26" stroke-width="1.5" stroke-linecap="round" stroke-linejoin="round"/>
</svg>
