<svg width="55" height="55" viewBox="0 0 55 55" fill="none" xmlns="http://www.w3.org/2000/svg">
<path d="M27.4167 8.74998V54.0833M27.4167 54.0833H19.4167M27.4167 54.0833H35.4167" stroke="#2D3C26" stroke-width="1.5" stroke-linecap="round" stroke-linejoin="round"/>
<path d="M51.4168 30.0833L44.7502 16.75L38.0835 30.0833" stroke="#2D3C26" stroke-width="1.5" stroke-linecap="round" stroke-linejoin="round"/>
<path d="M16.7501 30.0833L10.0834 16.75L3.41675 30.0833" stroke="#2D3C26" stroke-width="1.5" stroke-linecap="round" stroke-linejoin="round"/>
<path d="M6.0835 16.75H8.8787C12.2479 16.75 15.5168 15.3393 18.1478 12.75C23.5668 7.41665 31.2669 7.41665 36.6859 12.75C39.3168 15.3393 42.5857 16.75 45.955 16.75H48.7502" stroke="#2D3C26" stroke-width="1.5" stroke-linecap="round" stroke-linejoin="round"/>
<path d="M44.7501 40.75C48.3627 40.75 51.5085 38.5268 53.1428 35.2429C54.0248 33.4707 54.4658 32.5845 53.6608 31.3339C52.8557 30.0833 51.5234 30.0833 48.8587 30.0833H40.6414C37.9768 30.0833 36.6444 30.0833 35.8394 31.3339C35.0344 32.5845 35.4754 33.4707 36.3574 35.2429C37.9916 38.5268 41.1375 40.75 44.7501 40.75Z" stroke="#2D3C26" stroke-width="1.5"/>
<path d="M10.0833 40.75C13.6959 40.75 16.8418 38.5268 18.476 35.2429C19.358 33.4707 19.799 32.5845 18.994 31.3339C18.189 30.0833 16.8567 30.0833 14.192 30.0833H5.97467C3.31 30.0833 1.97767 30.0833 1.17265 31.3339C0.367624 32.5845 0.808625 33.4707 1.69063 35.2429C3.32488 38.5268 6.47076 40.75 10.0833 40.75Z" stroke="#2D3C26" stroke-width="1.5"/>
<path d="M31.4167 4.75C31.4167 6.95914 29.6259 8.75 27.4167 8.75C25.2076 8.75 23.4167 6.95914 23.4167 4.75C23.4167 2.54086 25.2076 0.75 27.4167 0.75C29.6259 0.75 31.4167 2.54086 31.4167 4.75Z" stroke="#2D3C26" stroke-width="1.5"/>
</svg>
