<svg width="50" height="47" viewBox="0 0 50 47" fill="none" xmlns="http://www.w3.org/2000/svg">
<path d="M32.5533 3.17943L14.8127 11.6954C13.4474 12.3508 11.9885 12.515 10.5013 12.1818C9.52805 11.9638 9.04136 11.8548 8.64947 11.81C3.78315 11.2543 0.75 15.1058 0.75 19.5347V21.9653C0.75 26.3942 3.78315 30.2457 8.64947 29.69C9.04135 29.6453 9.52808 29.5362 10.5013 29.3182C11.9885 28.9851 13.4474 29.1492 14.8127 29.8046L32.5533 38.3206C36.6258 40.2755 38.6621 41.253 40.9323 40.4911C43.2026 39.7292 43.9819 38.0944 45.5403 34.8248C49.8199 25.8464 49.8199 15.6536 45.5403 6.67525C43.9819 3.40564 43.2026 1.77083 40.9324 1.00895C38.6621 0.247072 36.6258 1.22452 32.5533 3.17943Z" stroke="#2D3C26" stroke-width="1.5" stroke-linecap="round" stroke-linejoin="round"/>
<path d="M27.4167 36.75V38.0834C27.4167 41.5076 27.4167 43.2197 26.8194 44.1863C26.0228 45.4751 24.5665 46.2033 23.0575 46.0672C21.9258 45.9651 20.5561 44.9379 17.8167 42.8834L14.6167 40.4834C12.0102 38.5284 11.4167 37.3416 11.4167 34.0834V30.0834" stroke="#2D3C26" stroke-width="1.5" stroke-linecap="round" stroke-linejoin="round"/>
<path d="M12.75 28.75V12.75" stroke="#2D3C26" stroke-width="1.5" stroke-linecap="round" stroke-linejoin="round"/>
</svg>
