<svg width="48" height="48" viewBox="0 0 48 48" fill="none" xmlns="http://www.w3.org/2000/svg">
<rect x="1" y="1" width="46" height="46" rx="23" stroke="white" stroke-width="2"/>
<path d="M34.9515 10.5H12.8455C12.1793 10.5 11.5404 10.7647 11.0693 11.2358C10.5982 11.7069 10.3335 12.3458 10.3335 13.012V35.118C10.3335 35.7842 10.5982 36.4231 11.0693 36.8942C11.5404 37.3653 12.1793 37.63 12.8455 37.63H34.9515C35.6177 37.63 36.2566 37.3653 36.7277 36.8942C37.1988 36.4231 37.4635 35.7842 37.4635 35.118V13.012C37.4635 12.3458 37.1988 11.7069 36.7277 11.2358C36.2566 10.7647 35.6177 10.5 34.9515 10.5ZM34.4491 34.6156H13.3479V13.5144H34.4491V34.6156ZM21.8889 30.0939V23.0602C21.8892 22.747 21.987 22.4416 22.1689 22.1866C22.3507 21.9315 22.6075 21.7395 22.9035 21.6371C23.1996 21.5348 23.5201 21.5272 23.8207 21.6154C24.1212 21.7037 24.3868 21.8833 24.5805 22.1295C25.3461 21.7282 26.2022 21.5312 27.0661 21.5576C27.9301 21.5839 28.7726 21.8327 29.5123 22.2799C30.2519 22.7271 30.8637 23.3575 31.2885 24.1103C31.7132 24.8631 31.9366 25.7127 31.937 26.577V30.0939C31.937 30.4936 31.7782 30.877 31.4956 31.1597C31.2129 31.4423 30.8295 31.6011 30.4298 31.6011C30.0301 31.6011 29.6467 31.4423 29.364 31.1597C29.0814 30.877 28.9226 30.4936 28.9226 30.0939V26.577C28.9226 26.044 28.7108 25.5329 28.334 25.156C27.9571 24.7791 27.4459 24.5674 26.9129 24.5674C26.38 24.5674 25.8688 24.7791 25.4919 25.156C25.115 25.5329 24.9033 26.044 24.9033 26.577V30.0939C24.9033 30.4936 24.7445 30.877 24.4619 31.1597C24.1792 31.4423 23.7958 31.6011 23.3961 31.6011C22.9963 31.6011 22.613 31.4423 22.3303 31.1597C22.0477 30.877 21.8889 30.4936 21.8889 30.0939ZM19.8792 23.0602V30.0939C19.8792 30.4936 19.7204 30.877 19.4378 31.1597C19.1551 31.4423 18.7718 31.6011 18.372 31.6011C17.9723 31.6011 17.5889 31.4423 17.3062 31.1597C17.0236 30.877 16.8648 30.4936 16.8648 30.0939V23.0602C16.8648 22.6604 17.0236 22.2771 17.3062 21.9944C17.5889 21.7118 17.9723 21.553 18.372 21.553C18.7718 21.553 19.1551 21.7118 19.4378 21.9944C19.7204 22.2771 19.8792 22.6604 19.8792 23.0602ZM16.3624 18.0361C16.3624 17.6386 16.4802 17.2501 16.7011 16.9196C16.9219 16.5891 17.2358 16.3316 17.603 16.1795C17.9702 16.0274 18.3742 15.9876 18.7641 16.0651C19.1539 16.1426 19.512 16.334 19.793 16.6151C20.0741 16.8961 20.2655 17.2542 20.343 17.6441C20.4206 18.0339 20.3808 18.438 20.2287 18.8052C20.0766 19.1724 19.819 19.4862 19.4885 19.7071C19.158 19.9279 18.7695 20.0457 18.372 20.0457C17.839 20.0457 17.3279 19.834 16.951 19.4571C16.5741 19.0803 16.3624 18.5691 16.3624 18.0361Z" fill="white"/>
</svg>
