<svg width="48" height="48" viewBox="0 0 48 48" fill="none" xmlns="http://www.w3.org/2000/svg">
<rect x="1" y="1" width="46" height="46" rx="23" stroke="white" stroke-width="2"/>
<path d="M34.543 33.6295L27.108 21.9529L34.387 13.9462C34.6424 13.6583 34.774 13.2813 34.7534 12.897C34.7327 12.5127 34.5614 12.152 34.2765 11.8932C33.9917 11.6343 33.6163 11.4982 33.2318 11.5143C32.8473 11.5303 32.4846 11.6973 32.2223 11.979L25.4857 19.3945L20.8919 12.1777C20.7599 11.9701 20.5776 11.7992 20.362 11.6807C20.1464 11.5623 19.9044 11.5001 19.6584 11.5H13.8079C13.5459 11.5001 13.2887 11.5706 13.0633 11.7041C12.8379 11.8376 12.6524 12.0292 12.5264 12.2589C12.4003 12.4886 12.3383 12.748 12.3467 13.0098C12.3552 13.2717 12.4338 13.5265 12.5744 13.7476L20.0094 25.4242L12.7256 33.4308C12.5937 33.5725 12.4912 33.7389 12.4242 33.9204C12.3571 34.102 12.3267 34.2951 12.3348 34.4884C12.3429 34.6818 12.3892 34.8717 12.4712 35.047C12.5532 35.2223 12.6692 35.3796 12.8124 35.5098C12.9557 35.64 13.1233 35.7404 13.3057 35.8053C13.488 35.8702 13.6814 35.8983 13.8747 35.8879C14.068 35.8775 14.2572 35.8288 14.4316 35.7447C14.6059 35.6607 14.7618 35.5428 14.8903 35.398L21.6317 27.9825L26.2256 35.1993C26.3576 35.4069 26.5398 35.5778 26.7554 35.6963C26.971 35.8147 27.213 35.8769 27.459 35.877H33.3095C33.5715 35.8769 33.8287 35.8064 34.0541 35.6729C34.2796 35.5394 34.465 35.3478 34.5911 35.1181C34.7171 34.8884 34.7792 34.6291 34.7707 34.3672C34.7623 34.1053 34.6836 33.8505 34.543 33.6295ZM28.2623 32.9518L16.4723 14.4252H18.8552L30.6451 32.9518H28.2623Z" fill="white"/>
</svg>
