<svg width="48" height="48" viewBox="0 0 48 48" fill="none" xmlns="http://www.w3.org/2000/svg">
<rect x="1" y="1" width="46" height="46" rx="23" stroke="white" stroke-width="2"/>
<path d="M28.9647 23.1289L22.3816 18.8969C22.1686 18.7599 21.9226 18.6828 21.6694 18.6737C21.4163 18.6646 21.1653 18.7238 20.943 18.8452C20.7206 18.9665 20.535 19.1455 20.4057 19.3633C20.2764 19.5811 20.2081 19.8297 20.2081 20.083V28.547C20.2081 28.8003 20.2764 29.0489 20.4057 29.2667C20.535 29.4845 20.7206 29.6635 20.943 29.7848C21.1653 29.9062 21.4163 29.9654 21.6694 29.9563C21.9226 29.9472 22.1686 29.8701 22.3816 29.7331L28.9647 25.5011C29.1632 25.3733 29.3264 25.1978 29.4395 24.9906C29.5525 24.7833 29.6118 24.5511 29.6118 24.315C29.6118 24.0789 29.5525 23.8467 29.4395 23.6394C29.3264 23.4322 29.1632 23.2567 28.9647 23.1289ZM23.0294 25.9608V22.6692L25.5932 24.315L23.0294 25.9608ZM36.9255 17.3205C36.7956 16.8147 36.5475 16.3469 36.2015 15.9557C35.8554 15.5646 35.4215 15.2612 34.9353 15.0705C30.835 13.4894 24.3566 13.5 23.9698 13.5C23.583 13.5 17.1046 13.4894 13.0043 15.0729C12.5181 15.2635 12.0841 15.5669 11.7381 15.9581C11.3921 16.3493 11.144 16.817 11.0141 17.3229C10.7038 18.5219 10.3335 20.7084 10.3335 24.315C10.3335 27.9216 10.7038 30.1081 11.0141 31.3071C11.144 31.813 11.3921 32.2807 11.7381 32.6719C12.0841 33.0631 12.5181 33.3665 13.0043 33.5571C16.9412 35.0771 23.0717 35.13 23.8957 35.13H24.0439C24.8667 35.13 30.9984 35.0771 34.9353 33.5571C35.4215 33.3665 35.8554 33.0631 36.2015 32.6719C36.5475 32.2807 36.7956 31.813 36.9255 31.3071C37.2358 30.1081 37.6061 27.9216 37.6061 24.315C37.6061 20.7084 37.2358 18.5219 36.9255 17.3229V17.3205ZM34.197 30.5995C34.1801 30.6716 34.1463 30.7386 34.0985 30.7952C34.0507 30.8518 33.9902 30.8963 33.9219 30.9251C30.4094 32.2805 24.4718 32.3087 24.0074 32.3087H23.9616C23.8993 32.3087 17.656 32.3287 14.0212 30.9251C13.9523 30.8968 13.8911 30.8525 13.8426 30.7959C13.7942 30.7392 13.7599 30.6719 13.7426 30.5995C13.5216 29.7484 13.1548 27.7993 13.1548 24.315C13.1548 20.8307 13.5251 18.8816 13.7426 18.0305C13.7595 17.9584 13.7933 17.8914 13.8411 17.8348C13.8889 17.7782 13.9494 17.7337 14.0176 17.7049C17.656 16.3013 23.8981 16.3213 23.9604 16.3213H23.978C24.0415 16.3213 30.2836 16.3013 33.9184 17.7049C33.9873 17.7332 34.0485 17.7775 34.097 17.8341C34.1454 17.8908 34.1797 17.9581 34.197 18.0305C34.418 18.8816 34.7848 20.8307 34.7848 24.315C34.7848 27.7993 34.4145 29.7484 34.197 30.5995Z" fill="white"/>
</svg>
