<svg width="48" height="48" viewBox="0 0 48 48" fill="none" xmlns="http://www.w3.org/2000/svg">
<rect x="1" y="1" width="46" height="46" rx="23" stroke="white" stroke-width="2"/>
<path d="M35.2592 14.5H13.6821C13.3244 14.5 12.9814 14.6421 12.7285 14.895C12.4756 15.1479 12.3335 15.4909 12.3335 15.8486V31.1324C12.3335 31.7285 12.5703 32.3002 12.9918 32.7217C13.4133 33.1432 13.985 33.38 14.5811 33.38H34.3602C34.9563 33.38 35.528 33.1432 35.9495 32.7217C36.371 32.3002 36.6078 31.7285 36.6078 31.1324V15.8486C36.6078 15.4909 36.4657 15.1479 36.2128 14.895C35.9599 14.6421 35.6169 14.5 35.2592 14.5ZM31.7923 17.1971L24.4706 23.9085L17.149 17.1971H31.7923ZM15.0306 30.6829V18.9143L23.5592 26.7327C23.808 26.9607 24.1332 27.0873 24.4706 27.0873C24.8081 27.0873 25.1333 26.9607 25.382 26.7327L33.9106 18.9143V30.6829H15.0306Z" fill="white"/>
</svg>
